<svg width="32" height="32" viewBox="0 0 32 32" fill="none" xmlns="http://www.w3.org/2000/svg">
  <defs>
    <linearGradient id="matlabGradient" x1="0%" y1="0%" x2="100%" y2="100%">
      <stop offset="0%" style="stop-color:#FFD700;stop-opacity:1" />
      <stop offset="30%" style="stop-color:#FFA500;stop-opacity:1" />
      <stop offset="70%" style="stop-color:#FF6347;stop-opacity:1" />
      <stop offset="100%" style="stop-color:#FF1493;stop-opacity:1" />
    </linearGradient>
  </defs>
  <!-- MATLAB intertwined wave design -->
  <path d="M6 8C6 5 8 3 11 3C14 3 16 5 16 8C16 11 14 13 11 13C8 13 6 11 6 8Z" fill="url(#matlabGradient)" stroke="url(#matlabGradient)" stroke-width="0.5"/>
  <path d="M16 3C19 3 21 5 21 8C21 11 19 13 16 13C13 13 11 11 11 8C11 5 13 3 16 3Z" fill="url(#matlabGradient)" stroke="url(#matlabGradient)" stroke-width="0.5"/>
  <path d="M9 8C9 7 9.5 6.5 10 6.5C10.5 6.5 11 7 11 8C11 9 10.5 9.5 10 9.5C9.5 9.5 9 9 9 8Z" fill="white" opacity="0.8"/>
  <path d="M21 8C21 7 21.5 6.5 22 6.5C22.5 6.5 23 7 23 8C23 9 22.5 9.5 22 9.5C21.5 9.5 21 9 21 8Z" fill="white" opacity="0.8"/>
</svg>